<svg width="1584" height="183" viewBox="0 0 1584 183" fill="none" xmlns="http://www.w3.org/2000/svg">
<path d="M0 0H1584V183H0V0Z" fill="#E8E1FF"/>
<path d="M74.352 133.144C74.352 133.699 73.0507 134.147 70.448 134.488C67.8453 134.829 65.2427 135 62.64 135C60.0373 135 58.3733 134.851 57.648 134.552C56.9227 134.253 56.56 133.784 56.56 133.144V91.992C56.56 89.944 62.704 88.92 74.992 88.92C82.416 88.92 87.3227 89.432 89.712 90.456C92.6133 91.6507 94.576 93.272 95.6 95.32C96.9653 97.9653 97.648 101.357 97.648 105.496C97.648 111.171 96.6667 115.288 94.704 117.848C93.296 119.725 91.888 120.941 90.48 121.496C89.072 122.051 87.8987 122.456 86.96 122.712C86.064 122.925 84.9333 123.096 83.568 123.224C81.6907 123.395 79.1307 123.48 75.888 123.48L74.352 123.416V133.144ZM74.416 112.792H75.952C76.7627 112.792 77.4027 112.685 77.872 112.472C78.3413 112.216 78.7467 111.576 79.088 110.552C79.472 109.485 79.664 108.013 79.664 106.136C79.664 104.216 79.4507 102.765 79.024 101.784C78.64 100.76 78.2347 100.163 77.808 99.992C77.424 99.7787 76.9547 99.672 76.4 99.672H74.416V112.792ZM118.77 114.776V133.464C118.77 133.933 117.554 134.317 115.122 134.616C112.733 134.872 110.237 135 107.634 135C105.074 135 103.41 134.893 102.642 134.68C101.874 134.424 101.49 134.019 101.49 133.464V101.912C101.49 101.101 102.663 100.227 105.01 99.288C107.399 98.3493 109.981 97.88 112.754 97.88C115.57 97.88 117.149 98.648 117.49 100.184L118.13 103.128H118.578C119.175 101.507 120.605 100.141 122.866 99.032C125.127 97.88 127.389 97.304 129.65 97.304C131.911 97.304 133.49 97.6667 134.386 98.392C135.325 99.1173 135.794 100.056 135.794 101.208C135.794 102.317 135.709 103.747 135.538 105.496C135.367 107.245 134.941 109.144 134.258 111.192C133.618 113.24 132.765 114.264 131.698 114.264C131.271 114.264 129.927 113.944 127.666 113.304C125.405 112.664 123.527 112.344 122.034 112.344C120.583 112.344 119.666 112.557 119.282 112.984C118.941 113.411 118.77 114.008 118.77 114.776ZM158.702 135.576C155.502 135.576 152.75 135.299 150.446 134.744C148.142 134.189 146.051 133.208 144.174 131.8C140.291 128.984 138.35 123.736 138.35 116.056C138.35 109.229 140.334 104.344 144.302 101.4C148.014 98.6693 152.814 97.304 158.702 97.304C161.219 97.304 163.374 97.432 165.166 97.688C166.958 97.9013 168.771 98.392 170.606 99.16C172.483 99.928 173.977 100.973 175.086 102.296C176.238 103.619 177.177 105.453 177.902 107.8C178.627 110.104 178.99 112.856 178.99 116.056C178.99 122.541 177.155 127.427 173.486 130.712C169.817 133.955 164.889 135.576 158.702 135.576ZM156.462 123.096C156.761 124.632 157.059 125.549 157.358 125.848C157.699 126.147 158.126 126.296 158.638 126.296C159.193 126.296 159.619 126.147 159.918 125.848C160.259 125.549 160.558 124.632 160.814 123.096C161.113 121.56 161.262 119.64 161.262 117.336C161.262 114.989 161.198 113.197 161.07 111.96C160.985 110.68 160.857 109.699 160.686 109.016C160.558 108.333 160.366 107.8 160.11 107.416C159.726 106.861 159.257 106.584 158.702 106.584C158.19 106.584 157.763 106.755 157.422 107.096C157.081 107.395 156.761 108.333 156.462 109.912C156.163 111.448 156.014 113.645 156.014 116.504C156.014 119.363 156.163 121.56 156.462 123.096ZM203.603 129.24C203.603 134.488 202.408 138.413 200.019 141.016C197.672 143.619 194.429 144.92 190.291 144.92C186.152 144.92 183.485 144.515 182.291 143.704C181.139 142.936 180.562 141.165 180.562 138.392C180.562 135.661 181.096 134.232 182.163 134.104C183.656 133.891 184.701 133.507 185.299 132.952C185.939 132.397 186.259 131.373 186.259 129.88V103.064C186.259 102.125 187.453 101.208 189.843 100.312C192.275 99.3733 194.899 98.904 197.715 98.904C201.64 98.904 203.603 99.9067 203.603 101.912V129.24ZM203.923 90.648C203.923 94.616 200.936 96.6 194.963 96.6C188.989 96.6 186.003 94.6587 186.003 90.776C186.003 88.6 186.792 87.1067 188.371 86.296C189.992 85.4853 192.232 85.08 195.091 85.08C197.949 85.08 200.125 85.464 201.619 86.232C203.155 86.9573 203.923 88.4293 203.923 90.648ZM225.26 120.536C225.26 123.309 226.582 124.696 229.228 124.696C230.764 124.696 232.769 124.184 235.244 123.16C237.718 122.093 239.02 121.56 239.148 121.56C239.958 121.56 241.025 122.776 242.347 125.208C243.67 127.64 244.332 129.432 244.332 130.584C244.332 132.248 242.625 133.507 239.212 134.36C235.798 135.213 232.449 135.64 229.164 135.64C225.921 135.64 223.19 135.384 220.972 134.872C218.796 134.36 217.004 133.72 215.595 132.952C214.23 132.141 213.014 131.16 211.948 130.008C210.924 128.856 210.156 127.768 209.644 126.744C209.132 125.677 208.726 124.504 208.428 123.224C208.001 121.347 207.788 119.405 207.788 117.4C207.788 109.635 209.814 104.28 213.868 101.336C215.873 99.8427 218.113 98.7973 220.588 98.2C223.062 97.6027 225.985 97.304 229.356 97.304C240.15 97.304 245.548 101.059 245.548 108.568C245.548 116.547 239.489 120.536 227.372 120.536H225.26ZM225.132 111.192V115.416C226.369 115.416 227.372 114.925 228.14 113.944C228.95 112.963 229.356 111.768 229.356 110.36C229.356 107.8 228.694 106.52 227.372 106.52C225.878 106.52 225.132 108.077 225.132 111.192ZM274.517 134.424C273.749 135.149 272 135.512 269.269 135.512C266.538 135.512 264.277 135.341 262.485 135C260.693 134.616 258.986 133.891 257.365 132.824C254.25 130.733 252.693 126.381 252.693 119.768V109.784H249.493C249.024 109.784 248.618 109.293 248.277 108.312C247.936 107.331 247.765 105.987 247.765 104.28C247.765 102.573 248.021 101.08 248.533 99.8C249.088 98.4773 249.792 97.816 250.645 97.816H252.693V90.072C252.693 88.7493 253.973 87.6827 256.533 86.872C259.136 86.0613 261.674 85.656 264.149 85.656C268.032 85.656 269.973 86.616 269.973 88.536V97.816H274.709C275.818 97.816 276.373 99.416 276.373 102.616C276.373 104.707 276.117 106.435 275.605 107.8C275.136 109.123 274.517 109.784 273.749 109.784H269.973V121.496C269.973 122.648 270.464 123.48 271.445 123.992C272.426 124.461 273.28 124.696 274.005 124.696C274.773 124.696 275.242 125.059 275.413 125.784C275.584 126.509 275.669 127.597 275.669 129.048C275.669 131.907 275.285 133.699 274.517 134.424ZM297.648 135.576C290.565 135.576 285.381 134.893 282.096 133.528C280.432 132.803 279.6 132.099 279.6 131.416C279.6 129.667 280.112 127.619 281.136 125.272C282.16 122.925 283.056 121.752 283.824 121.752C284.251 121.752 285.68 122.221 288.112 123.16C290.587 124.099 292.656 124.568 294.32 124.568C296.027 124.568 297.136 124.461 297.648 124.248C298.203 124.035 298.48 123.629 298.48 123.032C298.48 122.392 298.053 121.901 297.2 121.56C296.347 121.176 295.28 120.92 294 120.792C292.72 120.664 291.333 120.408 289.84 120.024C288.389 119.64 287.024 119.149 285.744 118.552C284.464 117.955 283.397 116.973 282.544 115.608C281.691 114.2 281.264 112.707 281.264 111.128C281.264 109.507 281.307 108.312 281.392 107.544C281.477 106.733 281.819 105.624 282.416 104.216C283.056 102.765 283.931 101.592 285.04 100.696C286.192 99.8 287.941 98.9893 290.288 98.264C292.677 97.5387 295.344 97.176 298.288 97.176C301.232 97.176 303.685 97.2827 305.648 97.496C307.653 97.6667 309.211 97.9013 310.32 98.2C311.472 98.4987 312.411 98.84 313.136 99.224C314.373 99.864 314.992 100.568 314.992 101.336C314.992 103 314.395 104.92 313.2 107.096C312.005 109.272 311.045 110.36 310.32 110.36C309.637 110.36 308.123 109.997 305.776 109.272C303.429 108.504 301.701 108.12 300.592 108.12C298.8 108.12 297.904 108.632 297.904 109.656C297.904 110.296 298.501 110.787 299.696 111.128C300.933 111.427 302.405 111.747 304.112 112.088C305.819 112.429 307.525 112.92 309.232 113.56C310.981 114.157 312.453 115.267 313.648 116.888C314.885 118.509 315.504 120.557 315.504 123.032C315.504 131.395 309.552 135.576 297.648 135.576ZM372.332 113.752V133.464C372.332 133.933 371.116 134.317 368.684 134.616C366.252 134.872 363.735 135 361.132 135C358.572 135 356.908 134.893 356.14 134.68C355.415 134.424 355.052 134.019 355.052 133.464V113.112C355.052 111.192 354.967 109.933 354.796 109.336C354.668 108.739 354.54 108.205 354.412 107.736C354.113 106.925 353.58 106.52 352.812 106.52C351.617 106.52 351.02 107.096 351.02 108.248V133.464C351.02 133.933 349.804 134.317 347.372 134.616C344.983 134.872 342.487 135 339.884 135C337.324 135 335.66 134.893 334.892 134.68C334.124 134.424 333.74 134.019 333.74 133.464V101.912C333.74 101.016 334.956 100.12 337.388 99.224C339.863 98.328 342.465 97.88 345.196 97.88C347.927 97.88 349.463 98.6693 349.804 100.248L350.38 103.064H350.828C352.065 100.589 354.199 98.8613 357.228 97.88C358.465 97.496 359.831 97.304 361.324 97.304C365.633 97.304 368.535 98.6053 370.028 101.208C371.564 103.768 372.332 107.949 372.332 113.752ZM396.515 135.576C393.315 135.576 390.563 135.299 388.259 134.744C385.955 134.189 383.864 133.208 381.987 131.8C378.104 128.984 376.163 123.736 376.163 116.056C376.163 109.229 378.147 104.344 382.115 101.4C385.827 98.6693 390.627 97.304 396.515 97.304C399.032 97.304 401.187 97.432 402.979 97.688C404.771 97.9013 406.584 98.392 408.419 99.16C410.296 99.928 411.789 100.973 412.899 102.296C414.051 103.619 414.989 105.453 415.715 107.8C416.44 110.104 416.803 112.856 416.803 116.056C416.803 122.541 414.968 127.427 411.299 130.712C407.629 133.955 402.701 135.576 396.515 135.576ZM394.275 123.096C394.573 124.632 394.872 125.549 395.171 125.848C395.512 126.147 395.939 126.296 396.451 126.296C397.005 126.296 397.432 126.147 397.731 125.848C398.072 125.549 398.371 124.632 398.627 123.096C398.925 121.56 399.075 119.64 399.075 117.336C399.075 114.989 399.011 113.197 398.883 111.96C398.797 110.68 398.669 109.699 398.499 109.016C398.371 108.333 398.179 107.8 397.923 107.416C397.539 106.861 397.069 106.584 396.515 106.584C396.003 106.584 395.576 106.755 395.235 107.096C394.893 107.395 394.573 108.333 394.275 109.912C393.976 111.448 393.827 113.645 393.827 116.504C393.827 119.363 393.976 121.56 394.275 123.096ZM445.767 134.424C444.999 135.149 443.25 135.512 440.519 135.512C437.788 135.512 435.527 135.341 433.735 135C431.943 134.616 430.236 133.891 428.615 132.824C425.5 130.733 423.943 126.381 423.943 119.768V109.784H420.743C420.274 109.784 419.868 109.293 419.527 108.312C419.186 107.331 419.015 105.987 419.015 104.28C419.015 102.573 419.271 101.08 419.783 99.8C420.338 98.4773 421.042 97.816 421.895 97.816H423.943V90.072C423.943 88.7493 425.223 87.6827 427.783 86.872C430.386 86.0613 432.924 85.656 435.399 85.656C439.282 85.656 441.223 86.616 441.223 88.536V97.816H445.959C447.068 97.816 447.623 99.416 447.623 102.616C447.623 104.707 447.367 106.435 446.855 107.8C446.386 109.123 445.767 109.784 444.999 109.784H441.223V121.496C441.223 122.648 441.714 123.48 442.695 123.992C443.676 124.461 444.53 124.696 445.255 124.696C446.023 124.696 446.492 125.059 446.663 125.784C446.834 126.509 446.919 127.597 446.919 129.048C446.919 131.907 446.535 133.699 445.767 134.424ZM463.65 135.576C459.767 135.576 456.717 134.659 454.498 132.824C453.602 132.056 452.813 130.925 452.13 129.432C451.49 127.939 451.17 126.189 451.17 124.184C451.17 122.179 451.639 120.429 452.578 118.936C453.559 117.443 454.733 116.291 456.098 115.48C457.463 114.669 459.063 114.008 460.898 113.496C463.671 112.771 466.722 112.408 470.05 112.408H472.162C472.162 110.659 471.565 109.421 470.37 108.696C469.858 108.397 469.069 108.248 468.002 108.248C466.978 108.248 465.719 108.525 464.226 109.08C462.775 109.635 461.559 110.211 460.578 110.808C459.597 111.363 458.935 111.64 458.594 111.64C457.826 111.64 456.781 110.637 455.458 108.632C454.135 106.584 453.474 104.728 453.474 103.064C453.474 102.509 454.263 101.784 455.842 100.888C457.421 99.992 459.639 99.1813 462.498 98.456C465.399 97.688 468.215 97.304 470.946 97.304C473.677 97.304 476.023 97.5387 477.986 98.008C479.991 98.4347 481.613 98.968 482.85 99.608C484.13 100.248 485.197 101.101 486.05 102.168C486.946 103.235 487.607 104.195 488.034 105.048C488.503 105.901 488.845 107.011 489.058 108.376C489.357 109.955 489.506 111.896 489.506 114.2V133.464C489.506 133.933 488.354 134.317 486.05 134.616C483.789 134.872 481.527 135 479.266 135C477.047 135 475.597 134.936 474.914 134.808C474.274 134.68 473.89 134.531 473.762 134.36C473.634 134.189 473.527 133.891 473.442 133.464L472.93 129.816H472.418C471.351 133.656 468.429 135.576 463.65 135.576ZM472.226 124.952V117.464C471.117 117.464 470.221 117.933 469.538 118.872C468.855 119.811 468.514 120.877 468.514 122.072C468.514 124.888 469.154 126.296 470.434 126.296C470.989 126.296 471.415 126.168 471.714 125.912C472.055 125.613 472.226 125.293 472.226 124.952ZM497.51 134.36C495.163 133.763 493.99 132.867 493.99 131.672V91.096C493.99 90.1573 495.249 89.24 497.766 88.344C500.283 87.448 502.929 87 505.702 87C509.457 87 511.334 87.9813 511.334 89.944V97.176L510.63 101.592H511.142C511.398 101.208 511.867 100.739 512.55 100.184C513.275 99.6293 514.022 99.16 514.79 98.776C516.667 97.7947 518.737 97.304 520.998 97.304C523.259 97.304 525.03 97.6027 526.31 98.2C527.633 98.7547 528.678 99.5013 529.446 100.44C530.257 101.336 530.897 102.488 531.366 103.896C532.177 106.328 532.582 109.357 532.582 112.984C532.582 119 531.899 123.608 530.534 126.808C529.169 130.008 526.95 132.269 523.878 133.592C520.806 134.915 516.475 135.576 510.886 135.576C505.297 135.576 500.838 135.171 497.51 134.36ZM511.27 126.168H513.254C514.619 126.168 515.302 122.904 515.302 116.376C515.302 109.805 514.598 106.52 513.19 106.52H511.27V126.168ZM554.02 88.024V133.464C554.02 133.933 552.804 134.317 550.372 134.616C547.94 134.872 545.423 135 542.82 135C540.26 135 538.596 134.893 537.828 134.68C537.103 134.424 536.74 134.019 536.74 133.464V89.176C536.74 88.2373 537.935 87.32 540.324 86.424C542.756 85.528 545.359 85.08 548.132 85.08C552.057 85.08 554.02 86.0613 554.02 88.024ZM575.322 120.536C575.322 123.309 576.645 124.696 579.29 124.696C580.826 124.696 582.831 124.184 585.306 123.16C587.781 122.093 589.082 121.56 589.21 121.56C590.021 121.56 591.087 122.776 592.41 125.208C593.733 127.64 594.394 129.432 594.394 130.584C594.394 132.248 592.687 133.507 589.274 134.36C585.861 135.213 582.511 135.64 579.226 135.64C575.983 135.64 573.253 135.384 571.034 134.872C568.858 134.36 567.066 133.72 565.658 132.952C564.293 132.141 563.077 131.16 562.01 130.008C560.986 128.856 560.218 127.768 559.706 126.744C559.194 125.677 558.789 124.504 558.49 123.224C558.063 121.347 557.85 119.405 557.85 117.4C557.85 109.635 559.877 104.28 563.93 101.336C565.935 99.8427 568.175 98.7973 570.65 98.2C573.125 97.6027 576.047 97.304 579.418 97.304C590.213 97.304 595.61 101.059 595.61 108.568C595.61 116.547 589.551 120.536 577.434 120.536H575.322ZM575.194 111.192V115.416C576.431 115.416 577.434 114.925 578.202 113.944C579.013 112.963 579.418 111.768 579.418 110.36C579.418 107.8 578.757 106.52 577.434 106.52C575.941 106.52 575.194 108.077 575.194 111.192ZM616.836 135.576C609.753 135.576 604.569 134.893 601.284 133.528C599.62 132.803 598.788 132.099 598.788 131.416C598.788 129.667 599.3 127.619 600.324 125.272C601.348 122.925 602.244 121.752 603.012 121.752C603.438 121.752 604.868 122.221 607.3 123.16C609.774 124.099 611.844 124.568 613.508 124.568C615.214 124.568 616.324 124.461 616.836 124.248C617.39 124.035 617.668 123.629 617.668 123.032C617.668 122.392 617.241 121.901 616.388 121.56C615.534 121.176 614.468 120.92 613.188 120.792C611.908 120.664 610.521 120.408 609.028 120.024C607.577 119.64 606.212 119.149 604.932 118.552C603.652 117.955 602.585 116.973 601.732 115.608C600.878 114.2 600.452 112.707 600.452 111.128C600.452 109.507 600.494 108.312 600.58 107.544C600.665 106.733 601.006 105.624 601.604 104.216C602.244 102.765 603.118 101.592 604.228 100.696C605.38 99.8 607.129 98.9893 609.476 98.264C611.865 97.5387 614.532 97.176 617.476 97.176C620.42 97.176 622.873 97.2827 624.836 97.496C626.841 97.6667 628.398 97.9013 629.507 98.2C630.66 98.4987 631.598 98.84 632.324 99.224C633.561 99.864 634.18 100.568 634.18 101.336C634.18 103 633.582 104.92 632.388 107.096C631.193 109.272 630.233 110.36 629.507 110.36C628.825 110.36 627.31 109.997 624.964 109.272C622.617 108.504 620.889 108.12 619.78 108.12C617.988 108.12 617.092 108.632 617.092 109.656C617.092 110.296 617.689 110.787 618.884 111.128C620.121 111.427 621.593 111.747 623.3 112.088C625.006 112.429 626.713 112.92 628.42 113.56C630.169 114.157 631.641 115.267 632.836 116.888C634.073 118.509 634.692 120.557 634.692 123.032C634.692 131.395 628.74 135.576 616.836 135.576Z" fill="#2D1B6B"/>
<path d="M652.505 128.984C652.505 131.501 651.929 133.229 650.777 134.168C649.625 135.107 647.918 135.576 645.657 135.576C643.438 135.576 641.753 135.107 640.601 134.168C639.449 133.229 638.873 131.501 638.873 128.984C638.873 126.467 639.449 124.803 640.601 123.992C641.795 123.139 643.502 122.712 645.72 122.712C647.939 122.712 649.625 123.139 650.777 123.992C651.929 124.803 652.505 126.467 652.505 128.984Z" fill="#FF6B4A"/>
</svg>
